<mxfile host="app.diagrams.net" modified="2024-01-29T07:06:29.036Z" agent="Mozilla/5.0 (Windows NT 10.0; Win64; x64) AppleWebKit/537.36 (KHTML, like Gecko) Chrome/120.0.0.0 Safari/537.36" etag="p3pz3pD6h3XrXBNJL8Kv" version="23.0.2" type="github">
  <diagram name="Page-1" id="UAH8qIKsVRaEJTh3IIAs">
    <mxGraphModel dx="756" dy="419" grid="1" gridSize="10" guides="1" tooltips="1" connect="1" arrows="1" fold="1" page="1" pageScale="1" pageWidth="850" pageHeight="1100" math="0" shadow="0">
      <root>
        <mxCell id="0" />
        <mxCell id="1" parent="0" />
        <mxCell id="LzMoc1q8ekc0HNt60c-l-1" value="" style="rounded=0;whiteSpace=wrap;html=1;" vertex="1" parent="1">
          <mxGeometry x="5" y="49" width="730" height="370" as="geometry" />
        </mxCell>
        <mxCell id="LzMoc1q8ekc0HNt60c-l-4" value="User" style="rounded=1;whiteSpace=wrap;html=1;" vertex="1" parent="1">
          <mxGeometry x="40" y="160" width="70" height="30" as="geometry" />
        </mxCell>
        <mxCell id="LzMoc1q8ekc0HNt60c-l-5" value="" style="endArrow=classic;html=1;rounded=0;" edge="1" parent="1" source="LzMoc1q8ekc0HNt60c-l-4" target="LzMoc1q8ekc0HNt60c-l-6">
          <mxGeometry width="50" height="50" relative="1" as="geometry">
            <mxPoint x="360" y="250" as="sourcePoint" />
            <mxPoint x="180" y="180" as="targetPoint" />
          </mxGeometry>
        </mxCell>
        <mxCell id="LzMoc1q8ekc0HNt60c-l-6" value="Datang Ke Perpus" style="rounded=1;whiteSpace=wrap;html=1;" vertex="1" parent="1">
          <mxGeometry x="160" y="160" width="90" height="30" as="geometry" />
        </mxCell>
        <mxCell id="LzMoc1q8ekc0HNt60c-l-7" value="Isi Form Kunjungan" style="rounded=1;whiteSpace=wrap;html=1;" vertex="1" parent="1">
          <mxGeometry x="290" y="160" width="90" height="30" as="geometry" />
        </mxCell>
        <mxCell id="LzMoc1q8ekc0HNt60c-l-9" value="Kirim" style="rounded=1;whiteSpace=wrap;html=1;" vertex="1" parent="1">
          <mxGeometry x="420" y="160" width="90" height="30" as="geometry" />
        </mxCell>
        <mxCell id="LzMoc1q8ekc0HNt60c-l-10" value="PencarianBuku" style="rounded=1;whiteSpace=wrap;html=1;" vertex="1" parent="1">
          <mxGeometry x="448" y="234" width="90" height="30" as="geometry" />
        </mxCell>
        <mxCell id="LzMoc1q8ekc0HNt60c-l-12" value="Daftar Kunjungan" style="rounded=1;whiteSpace=wrap;html=1;" vertex="1" parent="1">
          <mxGeometry x="580" y="160" width="100" height="30" as="geometry" />
        </mxCell>
        <mxCell id="LzMoc1q8ekc0HNt60c-l-13" value="Masukan Nama Buku atau Pengarang Buku" style="rounded=1;whiteSpace=wrap;html=1;" vertex="1" parent="1">
          <mxGeometry x="260" y="222.5" width="130" height="50" as="geometry" />
        </mxCell>
        <mxCell id="LzMoc1q8ekc0HNt60c-l-25" style="edgeStyle=orthogonalEdgeStyle;rounded=0;orthogonalLoop=1;jettySize=auto;html=1;" edge="1" parent="1" source="LzMoc1q8ekc0HNt60c-l-14" target="LzMoc1q8ekc0HNt60c-l-15">
          <mxGeometry relative="1" as="geometry" />
        </mxCell>
        <mxCell id="LzMoc1q8ekc0HNt60c-l-14" value="Proses Mencari" style="rounded=1;whiteSpace=wrap;html=1;" vertex="1" parent="1">
          <mxGeometry x="100" y="234" width="100" height="30" as="geometry" />
        </mxCell>
        <mxCell id="LzMoc1q8ekc0HNt60c-l-15" value="Pencarian Muncul" style="rounded=1;whiteSpace=wrap;html=1;" vertex="1" parent="1">
          <mxGeometry x="100" y="307" width="100" height="35" as="geometry" />
        </mxCell>
        <mxCell id="LzMoc1q8ekc0HNt60c-l-17" value="Detail Buku" style="rounded=1;whiteSpace=wrap;html=1;" vertex="1" parent="1">
          <mxGeometry x="390" y="310" width="80" height="30" as="geometry" />
        </mxCell>
        <mxCell id="LzMoc1q8ekc0HNt60c-l-18" value="Rincian Buku" style="rounded=1;whiteSpace=wrap;html=1;" vertex="1" parent="1">
          <mxGeometry x="252" y="311" width="90" height="30" as="geometry" />
        </mxCell>
        <mxCell id="LzMoc1q8ekc0HNt60c-l-20" value="" style="endArrow=classic;html=1;rounded=0;" edge="1" parent="1" source="LzMoc1q8ekc0HNt60c-l-6" target="LzMoc1q8ekc0HNt60c-l-7">
          <mxGeometry width="50" height="50" relative="1" as="geometry">
            <mxPoint x="360" y="250" as="sourcePoint" />
            <mxPoint x="410" y="200" as="targetPoint" />
          </mxGeometry>
        </mxCell>
        <mxCell id="LzMoc1q8ekc0HNt60c-l-21" value="" style="endArrow=classic;html=1;rounded=0;" edge="1" parent="1" source="LzMoc1q8ekc0HNt60c-l-7" target="LzMoc1q8ekc0HNt60c-l-9">
          <mxGeometry width="50" height="50" relative="1" as="geometry">
            <mxPoint x="360" y="250" as="sourcePoint" />
            <mxPoint x="410" y="200" as="targetPoint" />
          </mxGeometry>
        </mxCell>
        <mxCell id="LzMoc1q8ekc0HNt60c-l-22" value="" style="endArrow=classic;html=1;rounded=0;" edge="1" parent="1" source="LzMoc1q8ekc0HNt60c-l-9" target="LzMoc1q8ekc0HNt60c-l-12">
          <mxGeometry width="50" height="50" relative="1" as="geometry">
            <mxPoint x="360" y="250" as="sourcePoint" />
            <mxPoint x="410" y="200" as="targetPoint" />
          </mxGeometry>
        </mxCell>
        <mxCell id="LzMoc1q8ekc0HNt60c-l-23" value="" style="endArrow=classic;html=1;rounded=0;" edge="1" parent="1" source="LzMoc1q8ekc0HNt60c-l-12" target="LzMoc1q8ekc0HNt60c-l-29">
          <mxGeometry width="50" height="50" relative="1" as="geometry">
            <mxPoint x="360" y="250" as="sourcePoint" />
            <mxPoint x="410" y="200" as="targetPoint" />
          </mxGeometry>
        </mxCell>
        <mxCell id="LzMoc1q8ekc0HNt60c-l-24" value="" style="endArrow=classic;html=1;rounded=0;exitX=0;exitY=0.5;exitDx=0;exitDy=0;" edge="1" parent="1" source="LzMoc1q8ekc0HNt60c-l-10" target="LzMoc1q8ekc0HNt60c-l-13">
          <mxGeometry width="50" height="50" relative="1" as="geometry">
            <mxPoint x="360" y="250" as="sourcePoint" />
            <mxPoint x="410" y="200" as="targetPoint" />
          </mxGeometry>
        </mxCell>
        <mxCell id="LzMoc1q8ekc0HNt60c-l-27" value="" style="endArrow=classic;html=1;rounded=0;" edge="1" parent="1" source="LzMoc1q8ekc0HNt60c-l-13" target="LzMoc1q8ekc0HNt60c-l-14">
          <mxGeometry width="50" height="50" relative="1" as="geometry">
            <mxPoint x="360" y="250" as="sourcePoint" />
            <mxPoint x="410" y="200" as="targetPoint" />
          </mxGeometry>
        </mxCell>
        <mxCell id="LzMoc1q8ekc0HNt60c-l-29" value="Halaman" style="rounded=1;whiteSpace=wrap;html=1;" vertex="1" parent="1">
          <mxGeometry x="595" y="232.5" width="70" height="30" as="geometry" />
        </mxCell>
        <mxCell id="LzMoc1q8ekc0HNt60c-l-30" value="" style="endArrow=classic;html=1;rounded=0;" edge="1" parent="1" source="LzMoc1q8ekc0HNt60c-l-29" target="LzMoc1q8ekc0HNt60c-l-10">
          <mxGeometry width="50" height="50" relative="1" as="geometry">
            <mxPoint x="360" y="250" as="sourcePoint" />
            <mxPoint x="410" y="200" as="targetPoint" />
          </mxGeometry>
        </mxCell>
        <mxCell id="LzMoc1q8ekc0HNt60c-l-31" value="" style="endArrow=classic;html=1;rounded=0;" edge="1" parent="1" source="LzMoc1q8ekc0HNt60c-l-15" target="LzMoc1q8ekc0HNt60c-l-18">
          <mxGeometry width="50" height="50" relative="1" as="geometry">
            <mxPoint x="360" y="250" as="sourcePoint" />
            <mxPoint x="410" y="200" as="targetPoint" />
          </mxGeometry>
        </mxCell>
        <mxCell id="LzMoc1q8ekc0HNt60c-l-32" value="" style="endArrow=classic;html=1;rounded=0;" edge="1" parent="1" source="LzMoc1q8ekc0HNt60c-l-18" target="LzMoc1q8ekc0HNt60c-l-17">
          <mxGeometry width="50" height="50" relative="1" as="geometry">
            <mxPoint x="360" y="250" as="sourcePoint" />
            <mxPoint x="410" y="200" as="targetPoint" />
          </mxGeometry>
        </mxCell>
      </root>
    </mxGraphModel>
  </diagram>
</mxfile>
